<?xml version="1.0" encoding="UTF-8" standalone="no"?>
<!-- Created with Inkscape (http://www.inkscape.org/) -->

<svg
   xmlns:dc="http://purl.org/dc/elements/1.1/"
   xmlns:cc="http://creativecommons.org/ns#"
   xmlns:rdf="http://www.w3.org/1999/02/22-rdf-syntax-ns#"
   xmlns:svg="http://www.w3.org/2000/svg"
   xmlns="http://www.w3.org/2000/svg"
   xmlns:sodipodi="http://sodipodi.sourceforge.net/DTD/sodipodi-0.dtd"
   xmlns:inkscape="http://www.inkscape.org/namespaces/inkscape"
   id="svg3004"
   version="1.1"
   inkscape:version="0.48.2 r9819"
   width="48"
   height="56"
   xml:space="preserve"
   sodipodi:docname="line.svg"><metadata
     id="metadata3010"><rdf:RDF><cc:Work
         rdf:about=""><dc:format>image/svg+xml</dc:format><dc:type
           rdf:resource="http://purl.org/dc/dcmitype/StillImage" /><dc:title></dc:title></cc:Work></rdf:RDF></metadata><defs
     id="defs3008" /><sodipodi:namedview
     pagecolor="#ffffff"
     bordercolor="#666666"
     borderopacity="1"
     objecttolerance="10"
     gridtolerance="10"
     guidetolerance="10"
     inkscape:pageopacity="0"
     inkscape:pageshadow="2"
     inkscape:window-width="1104"
     inkscape:window-height="648"
     id="namedview3006"
     showgrid="true"
     inkscape:zoom="4.8956512"
     inkscape:cx="27.339987"
     inkscape:cy="25.401209"
     inkscape:window-x="0"
     inkscape:window-y="0"
     inkscape:window-maximized="0"
     inkscape:current-layer="g3012"><inkscape:grid
       type="xygrid"
       id="grid18802"
       empspacing="4"
       visible="true"
       enabled="true"
       snapvisiblegridlinesonly="true" /></sodipodi:namedview><g
     id="g3012"
     inkscape:groupmode="layer"
     inkscape:label="[AI]LINE_icon_RGB"
     transform="matrix(1.25,0,0,-1.25,0,56)"><path
       inkscape:connector-curvature="0"
       id="path18674"
       style="fill:#ffffff;fill-opacity:1;fill-rule:nonzero;stroke:none"
       d="m 29.022308,25.258693 c 0.462927,0 0.838943,-0.375758 0.838943,-0.839201 0,-0.461895 -0.376016,-0.838684 -0.838943,-0.838684 l -2.339652,0 0,-1.500452 2.339652,0 c 0.461638,0 0.838943,-0.376531 0.838943,-0.838684 0,-0.463701 -0.377305,-0.839717 -0.838943,-0.839717 l -3.179368,0 c -0.461896,0 -0.838943,0.376016 -0.838943,0.839717 l 0,3.175757 0,0.0021 0,0.0021 0,3.17782 c 0,0.461896 0.376532,0.839201 0.838943,0.839201 l 3.179368,0 c 0.462927,0 0.838943,-0.377305 0.838943,-0.839201 0,-0.463185 -0.376016,-0.839716 -0.838943,-0.839716 l -2.339652,0 0,-1.500967 2.339652,0 z m -5.144036,-4.017021 c 0,-0.362605 -0.230303,-0.682657 -0.573823,-0.796648 -0.08614,-0.02888 -0.176403,-0.04307 -0.266151,-0.04307 -0.262283,0 -0.512444,0.124823 -0.670278,0.336042 l -3.2588,4.436105 0,-3.93243 c 0,-0.463701 -0.375758,-0.839717 -0.838427,-0.839717 -0.462669,0 -0.839201,0.376016 -0.839201,0.839717 l 0,6.357704 c 0,0.361316 0.230819,0.680851 0.573824,0.795874 0.08614,0.02837 0.175886,0.04333 0.265893,0.04333 0.261766,0 0.513217,-0.125339 0.670019,-0.336557 l 3.258801,-4.437653 0,3.935009 c 0,0.461896 0.376531,0.839201 0.8392,0.839201 0.462927,0 0.838943,-0.377305 0.838943,-0.839201 l 0,-6.357704 z m -7.653385,0 c 0,-0.463701 -0.376015,-0.839717 -0.838427,-0.839717 -0.462411,0 -0.838427,0.376016 -0.838427,0.839717 l 0,6.357704 c 0,0.461896 0.376016,0.839201 0.838427,0.839201 0.462412,0 0.838427,-0.377305 0.838427,-0.839201 l 0,-6.357704 z m -3.287943,-0.839717 -3.1791105,0 c -0.4618956,0 -0.8381689,0.376016 -0.8381689,0.839717 l 0,6.357704 c 0,0.461896 0.3762733,0.839201 0.8381689,0.839201 0.4629275,0 0.8386845,-0.377305 0.8386845,-0.839201 l 0,-5.51902 2.340426,0 c 0.463185,0 0.838684,-0.376531 0.838684,-0.838684 0,-0.463701 -0.375499,-0.839717 -0.838684,-0.839717 M 35.2,24.661659 c 0,7.158736 -7.177047,12.983623 -15.999742,12.983623 -8.821664,0 -16.0002582,-5.824887 -16.0002582,-12.983623 0,-6.418053 5.6923276,-11.795229 13.3813022,-12.811348 0.520697,-0.11167 1.229658,-0.344809 1.409671,-0.789684 0.161703,-0.403352 0.105997,-1.036492 0.05184,-1.4452609 0,0 -0.187492,-1.1295938 -0.22824,-1.3712443 -0.06989,-0.4036106 -0.321857,-1.5809156 1.385687,-0.8613798 1.707801,0.7192779 9.214184,5.425919 12.57047,9.290264 l -0.001,0 C 34.08949,19.214592 35.2,21.795637 35.2,24.661659" /></g></svg>